<svg xmlns="http://www.w3.org/2000/svg" xmlns:xlink="http://www.w3.org/1999/xlink" width="428" height="926" viewBox="0 0 428 926">
  <defs>
    <filter id="Rectangle_103" x="12" y="367" width="405" height="350" filterUnits="userSpaceOnUse">
      <feOffset dy="-10" input="SourceAlpha"/>
      <feGaussianBlur stdDeviation="10" result="blur"/>
      <feFlood flood-opacity="0.078"/>
      <feComposite operator="in" in2="blur"/>
      <feComposite in="SourceGraphic"/>
    </filter>
    <clipPath id="clip-Create_Account_for_family_8">
      <rect width="428" height="926"/>
    </clipPath>
  </defs>
  <g id="Create_Account_for_family_8" data-name="Create Account for family – 8" clip-path="url(#clip-Create_Account_for_family_8)">
    <rect width="428" height="926" fill="#223f71"/>
    <g id="Status_Bar_-_Light" data-name="Status Bar - Light" transform="translate(0 0)">
      <path id="Subtraction_13" data-name="Subtraction 13" d="M428,50H0V38A37.969,37.969,0,0,1,38,0H88.97a7.056,7.056,0,0,1,4.112,2.355,8.322,8.322,0,0,1,1.854,3.52c.188.822.384,1.9.612,3.144.437,2.394.98,5.368,1.788,8.372,1.044,3.886,5.654,16.576,21.147,16.735,4.583.047,29.994.073,71.551.073,54.431,0,116.917-.043,119.86-.073,15.492-.16,20.1-12.85,21.149-16.735.808-3.008,1.351-5.984,1.787-8.375V9.01c.227-1.242.422-2.314.609-3.134a8.5,8.5,0,0,1,1.781-3.52A6.778,6.778,0,0,1,339.355,0H390a37.968,37.968,0,0,1,38,38V50Z" transform="translate(0 0)" fill="none"/>
      <g id="Group_5" data-name="Group 5" transform="translate(346 20.091)">
        <path id="Wifi" d="M70.995,7.359a9.772,9.772,0,0,1,6.329,2.306L78.5,8.395a11.176,11.176,0,0,0-15-.009l1.174,1.272a9.771,9.771,0,0,1,6.321-2.3Zm0,3.666a5.939,5.939,0,0,1,3.8,1.366l1.245-1.344a7.722,7.722,0,0,0-10.092-.005l1.243,1.346a5.937,5.937,0,0,1,3.8-1.362Zm2.56,2.71a3.92,3.92,0,0,0-5.117,0L70.994,16.5l2.56-2.766Z" transform="translate(-40.5 -5.5)" fill="#fff" fill-rule="evenodd"/>
        <path id="Mobile-Signal" d="M14.069.576A.588.588,0,0,1,14.662,0h1.745A.58.58,0,0,1,17,.576v9.849a.588.588,0,0,1-.593.576H14.662a.58.58,0,0,1-.593-.576Zm-4.69,2.9A.591.591,0,0,1,9.972,2.9h1.745a.594.594,0,0,1,.593.583v6.94a.591.591,0,0,1-.593.583H9.972a.594.594,0,0,1-.593-.583ZM4.69,5.787a.588.588,0,0,1,.593-.576H7.028a.579.579,0,0,1,.593.576v4.637A.588.588,0,0,1,7.028,11H5.283a.579.579,0,0,1-.593-.576ZM0,8.1a.587.587,0,0,1,.593-.574H2.338a.579.579,0,0,1,.593.574v2.327A.587.587,0,0,1,2.338,11H.593A.579.579,0,0,1,0,10.428Z" fill="#fff" fill-rule="evenodd"/>
        <g id="Battery" transform="translate(44 1)">
          <path id="Tip" d="M23,3.5a1.852,1.852,0,0,1,1.5,1.75A1.852,1.852,0,0,1,23,7Z" transform="translate(-3 -0.5)" fill="#fff" fill-rule="evenodd"/>
          <rect id="Fill" width="15" height="5.5" rx="1" transform="translate(2 2)" fill="#fff"/>
          <g id="Outline" fill="none" stroke="#000" stroke-width="1" opacity="0.4">
            <rect width="19" height="9.5" rx="2.5" stroke="none"/>
            <rect x="0.5" y="0.5" width="18" height="8.5" rx="2" fill="none"/>
          </g>
        </g>
      </g>
      <text id="_9:41_AM" data-name="9:41 AM" transform="translate(49.396 31.545)" fill="#fff" font-size="15" font-family="SegoeUI, Segoe UI"><tspan x="-13.755" y="0">9:41</tspan></text>
    </g>
    <g id="Home_Bar_-_Light" data-name="Home Bar - Light" transform="translate(0 882)" opacity="0.3">
      <path id="Rectangle_157" data-name="Rectangle 157" d="M0,0H428a0,0,0,0,1,0,0V6a38,38,0,0,1-38,38H38A38,38,0,0,1,0,6V0A0,0,0,0,1,0,0Z" fill="rgba(255,255,255,0)"/>
      <rect id="Rectangle_156" data-name="Rectangle 156" width="130" height="5" rx="2.5" transform="translate(150 27)" fill="#363636"/>
    </g>
    <text id="Scan_to_Pay" data-name="Scan to Pay" transform="translate(30 199)" fill="#223f71" font-size="24" font-family="SegoeUI-Bold, Segoe UI" font-weight="700" letter-spacing="0.012em"><tspan x="0" y="0">Scan to Pay</tspan></text>
    <text id="Payment_100_AED" data-name="Payment               100       AED" transform="translate(207 692)" fill="#223f71" font-size="18" font-family="SegoeUI-Bold, Segoe UI" font-weight="700" letter-spacing="0.012em"><tspan x="-128.631" y="0" xml:space="preserve">Payment         </tspan><tspan y="0" xml:space="preserve" text-decoration="underline">      100      </tspan><tspan y="0" xml:space="preserve"> AED</tspan></text>
    <g transform="matrix(1, 0, 0, 1, 0, 0)" filter="url(#Rectangle_103)">
      <rect id="Rectangle_103-2" data-name="Rectangle 103" width="345" height="290" rx="35" transform="translate(42 407)" fill="#fff"/>
    </g>
    <path id="Path_12005" data-name="Path 12005" d="M26.5,0h1a26.5,26.5,0,0,1,0,53h-1a26.5,26.5,0,0,1,0-53Z" transform="translate(187 590)" fill="#223f71"/>
    <path id="Path_157" data-name="Path 157" d="M7333.156,994.581l8.342,6.784h0l14.151-21.445" transform="translate(-7130.403 -374.143)" fill="none" stroke="#fff" stroke-linecap="round" stroke-linejoin="round" stroke-width="6"/>
    <text id="Card_Request_Submitted_Successfully_" data-name="Card Request Submitted
Successfully!" transform="translate(214 506)" fill="#223f71" font-size="24" font-family="SegoeUI-Bold, Segoe UI" font-weight="700" letter-spacing="0.012em"><tspan x="-139.952" y="0">Card Request Submitted</tspan><tspan x="-73.347" y="32">Successfully!</tspan></text>
    <g id="Group_1163" data-name="Group 1163" transform="translate(-315.721 335.707)">
      <g id="Group_5-2" data-name="Group 5" transform="translate(801.917 -190.329)">
        <g id="Group_3" data-name="Group 3" transform="translate(-359.475 135.893)">
          <g id="Group_2" data-name="Group 2">
            <g id="Group_1" data-name="Group 1">
              <path id="Path_1" data-name="Path 1" d="M353.287,476.628l16.331-31.586,8.7,16.82-5.867,5.085-2.836-4.694-4.6,8.7Z" transform="translate(-216.808 -445.042)" fill="#fcfdfd"/>
              <path id="Path_2" data-name="Path 2" d="M348,480.19s26.892-6.552,38.431-23.763c0,0,3.129-6.16-8.409-2.445,0,0,16.135-6.943,12.517,1.956,0,0-2.738,5.671-10.268,10.659l7.041,13.593h-8.9l-4.3-9.486s-8.7,5.476-12.713,6.551c0,0-1.075.685-.978,2.934Z" transform="translate(-216.507 -445.404)" fill="#fcfdfd"/>
              <path id="Path_3" data-name="Path 3" d="M208.585,479.885l5.745-33.844h8.707l6.778,18.044,6.733-18.044h8.707L251,479.885h-8.753l-2.918-19.48-7.99,19.48h-3.5l-7.585-19.48-2.917,19.48Z" transform="translate(-208.585 -445.099)" fill="#fcfdfd"/>
              <path id="Path_4" data-name="Path 4" d="M278.475,453.493H268.016v5.655h9.875V466.6h-9.875v5.835h10.459v7.451H259.219V446.041h19.256Z" transform="translate(-211.462 -445.099)" fill="#fcfdfd"/>
              <path id="Path_5" data-name="Path 5" d="M285.731,479.885V446.041h7.918l14.623,20.693V446.041h7.877v33.844h-7.877l-14.623-20.692v20.692Z" transform="translate(-212.969 -445.099)" fill="#fcfdfd"/>
              <path id="Path_6" data-name="Path 6" d="M343.186,454.648a10.886,10.886,0,0,0-2.873-1.729,7.643,7.643,0,0,0-2.782-.561,4.516,4.516,0,0,0-2.783.808,2.519,2.519,0,0,0-1.077,2.11,2.1,2.1,0,0,0,.539,1.481,4.689,4.689,0,0,0,1.414,1.01,12.063,12.063,0,0,0,1.975.74q1.1.315,2.177.673a13.6,13.6,0,0,1,6.307,3.837,9.483,9.483,0,0,1,2,6.263,12.179,12.179,0,0,1-.876,4.712,9.823,9.823,0,0,1-2.559,3.613,11.8,11.8,0,0,1-4.128,2.334,17.2,17.2,0,0,1-5.544.83,20.378,20.378,0,0,1-11.894-3.815l3.771-7.091a15.32,15.32,0,0,0,3.9,2.6,9.4,9.4,0,0,0,3.815.853,4.552,4.552,0,0,0,3.209-.988,3.062,3.062,0,0,0,.786-3.569,2.858,2.858,0,0,0-.9-1.032,7.146,7.146,0,0,0-1.639-.875q-1.009-.4-2.446-.9-1.706-.539-3.344-1.189a10.513,10.513,0,0,1-2.918-1.729,8.016,8.016,0,0,1-2.065-2.715,9.606,9.606,0,0,1-.785-4.152,11.994,11.994,0,0,1,.83-4.556,10.124,10.124,0,0,1,2.334-3.5,10.409,10.409,0,0,1,3.68-2.266,13.909,13.909,0,0,1,4.87-.807,21.354,21.354,0,0,1,5.252.7,23.232,23.232,0,0,1,5.252,2.042Z" transform="translate(-215.091 -445.042)" fill="#fcfdfd"/>
            </g>
          </g>
        </g>
        <path id="Path_19" data-name="Path 19" d="M250.091,425.781s-4.742,9.107-.539,11.533,11.964-2.641,11.964-2.641l10.724-7.383s25.3,12.693,49.218-5.658c0,0,26.693,16.759,34.654,7.514,0,0,6.426-9.188-23.5-39.111,0,0,21.648,22.61,17.51,31.2S315.912,410.1,315.912,410.1s-25.221-17.662-24.982-18.219-11.3,12.093-11.3,12.093l1.67,1.273,4.217-1.91s.318-.875,1.432.637,3.422,2.546,3.422,7.161a24.526,24.526,0,0,1-1.273,7.956s8.2-6.763,10.422-10.263c0,0,11.438,7.773,13.957,8.641,0,0-14.506,9.542-35.849-.738,0,0-7.375,8.939-12.068,11.957S246.016,443.1,250.091,425.781Z" transform="translate(-570.289 -306.023)" fill="#fff"/>
        <path id="Path_20" data-name="Path 20" d="M274.232,405.98s-7.892,7.967-5.808,10.648c0,0,4.453-.671,9.561-8.116,0,0-6.731,11.466-13.954,12.733C264.031,421.244,263.361,414.989,274.232,405.98Z" transform="translate(-571.211 -306.929)" fill="#fff"/>
        <path id="Path_21" data-name="Path 21" d="M278.779,409.715s-9.67,13.372-17,13.825c0,0-2.946-5.062,9.972-18.283,0,0-18.056,14.128-17.6,27.047C254.149,432.3,266.086,430.34,278.779,409.715Z" transform="translate(-570.649 -306.888)" fill="#fff"/>
        <path id="Path_22" data-name="Path 22" d="M251.521,420.961a44.247,44.247,0,0,1,11.766-18.279s-12.9-11.532-10.163-32.989c0,0,.28-.982,1.176.144s10.948,10.227,11.479,10.448.354,1.15,0,1.46a40.612,40.612,0,0,0-5.97,8.932s9.287-6.234,15.876.664l-.622,4.5a2.106,2.106,0,0,0,.984,2.348,132.876,132.876,0,0,1,9.89-12.647S244.307,352.7,243,345.784c0,0-8.682-11.249,0-13.534s30.586,10.079,30.586,10.079S239.316,321.5,230.85,330.1c0,0-6.451,6.182,14.648,30.506,0,0-12.19,23.225,8.871,49.874C254.368,410.48,252.665,415.7,251.521,420.961Z" transform="translate(-569.273 -302.499)" fill="#fff"/>
        <path id="Path_23" data-name="Path 23" d="M276.178,406.5s18.132-23.9,20.527-23.752c0,0,1.34-.3-.772,2.414S277.611,406.123,276.178,406.5Z" transform="translate(-571.901 -305.609)" fill="#fff"/>
        <path id="Path_24" data-name="Path 24" d="M293.864,386.139l12.809,9.886s2.461-5.773,0-11.506c0,0-.431-.955,1.361-2.428s27.917-27.54,38.562-60.637c0,0-34.275,18.557-55.611,48.68a14.749,14.749,0,0,0-13.631,2.55s-1,1.63.816.634,6.34-4.212,11.5-2.446c0,0,.679.815-.68.724s-4.439-.543-10.552,2.808l7.744,6.386,5.522-7.248a4.126,4.126,0,0,0,.457-3.389S316.6,339.069,343.749,324.6c0,0,.909.145-.816,1.074s-33.09,26.415-41.749,38.959c0,0-2.1,3.108-14.482,16.761l1.915,1.431s6.147-7.352,8.14-7.691c0,0,1.408.242.419,1.451,0,0-.892-.677-3.359,1.935a45.991,45.991,0,0,0-4.063,4.933s.048.581.532.29,5.42-7.453,7.321-5.322-.85,4.606-.85,4.606Z" transform="translate(-571.953 -302.126)" fill="#fff"/>
        <path id="Path_25" data-name="Path 25" d="M257.73,358.546c-.133.323-6.059-6.179-6.059-6.179s6.539-8.7,12.778-12.6l5.639,2.76S262.289,347.447,257.73,358.546Z" transform="translate(-570.509 -303.167)" fill="#fff"/>
        <path id="Path_26" data-name="Path 26" d="M269.959,336.612s19.1-14.278,48.15.393c0,0,.815,1.053-1.388.375s-18.335-11.873-42.287,1.855Z" transform="translate(-571.548 -302.634)" fill="#fff"/>
        <path id="Path_27" data-name="Path 27" d="M327.969,412.2l5.146,3.318s7.043-8.193,9.209-16.048l-2.573-3.115A35.429,35.429,0,0,1,327.969,412.2Z" transform="translate(-574.844 -306.382)" fill="#fff"/>
        <path id="Path_28" data-name="Path 28" d="M342.019,390l2.537,2.538s5.514-19.6-5.687-37.454c0,0-1.246-.71-.279,1.117A41.089,41.089,0,0,1,342.019,390Z" transform="translate(-575.427 -304.029)" fill="#fff"/>
        <path id="Path_29" data-name="Path 29" d="M325.719,383.073s1.171,1.652,2.65-.53a28.4,28.4,0,0,1,2.465-3.229s-2.342,4.807-1.787,5.423,4.068,3.575,4.068,3.575l-4.253-2.1s-.8-.8-1.541.493a26.221,26.221,0,0,1-2.773,3.451l1.787-4.129s.986-.616-.863-1.725a22.262,22.262,0,0,1-3.451-2.65Z" transform="translate(-574.506 -305.414)" fill="#fff"/>
        <path id="Path_30" data-name="Path 30" d="M278.166,355.869l2.625,2.083a.878.878,0,0,1,.155,1.21,14.991,14.991,0,0,0-1.179,2.637,12.229,12.229,0,0,0,1.955-2.171c.31-.5.5-1.238,1.923-.262a8.212,8.212,0,0,0,2.514,1.222,32.2,32.2,0,0,0-2.885-2.419s-.528-.31-.031-1.117a9.154,9.154,0,0,0,1.4-3.072,8.437,8.437,0,0,0-2.476,2.73s-.068.745-.937.125A9.88,9.88,0,0,0,278.166,355.869Z" transform="translate(-572.014 -303.974)" fill="#fff"/>
        <path id="Path_31" data-name="Path 31" d="M301.48,338.071l-3.175,3.958s-.289,1.278-2.266.206-3.628-1.867-3.628-1.867l3.669,3.393s.619.247.289,1.154-1.442,3.958-1.442,3.958l2.7-3.092s.183-.989,2.079-.082,3.627,1.69,3.627,1.69l-3.916-3.133s-.536-.494-.082-1.772S301.48,338.071,301.48,338.071Z" transform="translate(-572.823 -303.07)" fill="#fff"/>
      </g>
    </g>
    <text id="LINKS" transform="translate(214 371)" fill="#fff" font-size="50" font-family="Futura-Bold, Futura" font-weight="700" letter-spacing="0.04em"><tspan x="-80.85" y="0">LINKS</tspan></text>
  </g>
</svg>
