<svg xmlns="http://www.w3.org/2000/svg" xmlns:xlink="http://www.w3.org/1999/xlink" width="428" height="1067" viewBox="0 0 428 1067">
  <defs>
    <clipPath id="clip-path">
      <rect id="Rectangle_1500" data-name="Rectangle 1500" width="24.579" height="31.272" fill="none"/>
    </clipPath>
    <filter id="Rectangle_2202" x="-9" y="140" width="446" height="122" filterUnits="userSpaceOnUse">
      <feOffset dy="3" input="SourceAlpha"/>
      <feGaussianBlur stdDeviation="3" result="blur"/>
      <feFlood flood-opacity="0.161"/>
      <feComposite operator="in" in2="blur"/>
      <feComposite in="SourceGraphic"/>
    </filter>
    <filter id="Rectangle_2201" x="-9" y="813" width="446" height="119" filterUnits="userSpaceOnUse">
      <feOffset dy="-3" input="SourceAlpha"/>
      <feGaussianBlur stdDeviation="3" result="blur-2"/>
      <feFlood flood-opacity="0.161"/>
      <feComposite operator="in" in2="blur-2"/>
      <feComposite in="SourceGraphic"/>
    </filter>
    <clipPath id="clip-Pull_back_1">
      <rect width="428" height="1067"/>
    </clipPath>
  </defs>
  <g id="Pull_back_1" data-name="Pull back – 1" clip-path="url(#clip-Pull_back_1)">
    <rect width="428" height="1067" fill="#223f71"/>
    <g id="Group_1351" data-name="Group 1351">
      <rect id="Rectangle_562" data-name="Rectangle 562" width="428" height="896" fill="#223f71"/>
      <g id="Status_Bar_-_Light" data-name="Status Bar - Light" transform="translate(0 0)">
        <path id="Subtraction_13" data-name="Subtraction 13" d="M428,44H0V38A37.969,37.969,0,0,1,38,0H88.974a7.332,7.332,0,0,1,4.11,2.073,7.08,7.08,0,0,1,1.854,3.1c.188.724.384,1.671.612,2.768.437,2.106.979,4.723,1.787,7.366,1.044,3.419,5.654,14.587,21.147,14.727,5.846.053,42.281.064,71.816.064,54.331,0,116.676-.038,119.6-.064,15.491-.14,20.1-11.307,21.148-14.727.808-2.646,1.351-5.265,1.787-7.369.227-1.1.423-2.042.611-2.765A7.09,7.09,0,0,1,339.351,0H390a37.968,37.968,0,0,1,38,38v6Z" transform="translate(0 0)" fill="none"/>
        <g id="Group_5" data-name="Group 5" transform="translate(346 17)">
          <path id="Wifi" d="M70.995,7.359a9.772,9.772,0,0,1,6.329,2.306L78.5,8.395a11.176,11.176,0,0,0-15-.009l1.174,1.272a9.771,9.771,0,0,1,6.321-2.3Zm0,3.666a5.939,5.939,0,0,1,3.8,1.366l1.245-1.344a7.722,7.722,0,0,0-10.092-.005l1.243,1.346a5.937,5.937,0,0,1,3.8-1.362Zm2.56,2.71a3.92,3.92,0,0,0-5.117,0L70.994,16.5l2.56-2.766Z" transform="translate(-40.5 -5.5)" fill="#fff" fill-rule="evenodd"/>
          <path id="Mobile-Signal" d="M14.069.576A.588.588,0,0,1,14.662,0h1.745A.58.58,0,0,1,17,.576v9.849a.588.588,0,0,1-.593.576H14.662a.58.58,0,0,1-.593-.576Zm-4.69,2.9A.591.591,0,0,1,9.972,2.9h1.745a.594.594,0,0,1,.593.583v6.94a.591.591,0,0,1-.593.583H9.972a.594.594,0,0,1-.593-.583ZM4.69,5.787a.588.588,0,0,1,.593-.576H7.028a.579.579,0,0,1,.593.576v4.637A.588.588,0,0,1,7.028,11H5.283a.579.579,0,0,1-.593-.576ZM0,8.1a.587.587,0,0,1,.593-.574H2.338a.579.579,0,0,1,.593.574v2.327A.587.587,0,0,1,2.338,11H.593A.579.579,0,0,1,0,10.428Z" fill="#fff" fill-rule="evenodd"/>
          <g id="Battery" transform="translate(44 1)">
            <path id="Tip" d="M23,3.5a1.852,1.852,0,0,1,1.5,1.75A1.852,1.852,0,0,1,23,7Z" transform="translate(-3 -0.5)" fill="#fff" fill-rule="evenodd"/>
            <rect id="Fill" width="15" height="5.5" rx="1" transform="translate(2 2)" fill="#fff"/>
            <g id="Outline" fill="none" stroke="#fff" stroke-width="1" opacity="0.4">
              <rect width="19" height="9.5" rx="2.5" stroke="none"/>
              <rect x="0.5" y="0.5" width="18" height="8.5" rx="2" fill="none"/>
            </g>
          </g>
        </g>
        <text id="_9:41_AM" data-name="9:41 AM" transform="translate(49.396 28.436)" fill="#fff" font-size="15" font-family="SegoeUI, Segoe UI"><tspan x="-13.755" y="0">9:41</tspan></text>
      </g>
      <g id="user" transform="translate(350 146)" opacity="0">
        <circle id="bg" cx="24" cy="24" r="24" fill="#202426"/>
        <g id="_24px-9" data-name="24px-9" transform="translate(12 12)">
          <path id="Path_101" data-name="Path 101" d="M12,12A4,4,0,1,0,8,8,4,4,0,0,0,12,12Zm0,2c-2.67,0-8,1.34-8,4v2H20V18C20,15.34,14.67,14,12,14Z" fill="#fff"/>
          <path id="Path_102" data-name="Path 102" d="M0,0H24V24H0Z" fill="none"/>
        </g>
      </g>
      <g id="Intro" transform="translate(30 139)" opacity="0">
        <text id="Total_Balance" data-name="Total Balance" fill="#202426" font-size="16" font-family="SegoeUI, Segoe UI" letter-spacing="0.012em"><tspan x="0" y="17">Total Balance</tspan></text>
        <text id="_3.210_00" data-name="€ 3.210,00" transform="translate(0 23)" fill="#202426" font-size="32" font-family="SegoeUI-Bold, Segoe UI" font-weight="700" letter-spacing="0.012em"><tspan x="0" y="35">€ 3.210,00</tspan></text>
      </g>
      <g id="Graphs" transform="translate(30 245)" opacity="0">
        <g id="spacer" fill="rgba(255,255,255,0)" stroke="rgba(0,0,0,0)" stroke-width="1">
          <rect width="368" height="234" stroke="none"/>
          <rect x="0.5" y="0.5" width="367" height="233" fill="none"/>
        </g>
        <g id="Group_12" data-name="Group 12" transform="translate(0 25.5)">
          <text id="Mon" transform="translate(0 189.5)" fill="#07877d" font-size="13" font-family="SegoeUI, Segoe UI" letter-spacing="0.015em" opacity="0.6"><tspan x="0" y="0">MON</tspan></text>
          <text id="Tue" transform="translate(61 189.5)" fill="#07877d" font-size="13" font-family="SegoeUI, Segoe UI" letter-spacing="0.015em" opacity="0.6"><tspan x="0" y="0">TUE</tspan></text>
          <text id="Wed" transform="translate(119 189.5)" fill="#07877d" font-size="13" font-family="SegoeUI, Segoe UI" letter-spacing="0.015em" opacity="0.6"><tspan x="0" y="0">WED</tspan></text>
          <text id="Thu" transform="translate(181 189.5)" fill="#07877d" font-size="13" font-family="SegoeUI, Segoe UI" letter-spacing="0.015em" opacity="0.6"><tspan x="0" y="0">THU</tspan></text>
          <text id="Fri" transform="translate(239 189.5)" fill="#07877d" font-size="13" font-family="SegoeUI, Segoe UI" letter-spacing="0.015em" opacity="0.6"><tspan x="0" y="0">FRI</tspan></text>
          <text id="Sat" transform="translate(288 189.5)" fill="#07877d" font-size="13" font-family="SegoeUI, Segoe UI" letter-spacing="0.015em" opacity="0.6"><tspan x="0" y="0">SAT</tspan></text>
          <text id="Sun" transform="translate(342 189.5)" fill="#07877d" font-size="13" font-family="SegoeUI, Segoe UI" letter-spacing="0.015em" opacity="0.6"><tspan x="0" y="0">SUN</tspan></text>
          <path id="Path_103" data-name="Path 103" d="M-511,1531.824l27.966-27.723,29.42,27.723,39.324-47.391,52.623,74.6,34.171-45.32,28.433,18.113,36.25-27.723,51.212-45.815,21.621,50.7,16.04,50.043L-143,1495.359" transform="translate(511 -1415.5)" fill="none" stroke="#c10404" stroke-width="2"/>
          <line id="Line_1" data-name="Line 1" y2="160" transform="translate(300.949)" fill="none" stroke="#07877d" stroke-width="0.5"/>
          <g id="Ellipse_4" data-name="Ellipse 4" transform="translate(294 34.5)" fill="#07877d" stroke="#fff" stroke-width="2">
            <circle cx="7" cy="7" r="7" stroke="none"/>
            <circle cx="7" cy="7" r="6" fill="none"/>
          </g>
          <text id="_-231_30_" data-name="-231,30 €" transform="translate(214 37.5)" fill="#07877d" font-size="16" font-family="SegoeUI, Segoe UI" letter-spacing="0.012em"><tspan x="0" y="0">-231,30 €</tspan></text>
        </g>
      </g>
      <path id="BG-2" data-name="BG" d="M62.029,0H365.971C400.229,0,428,20.36,428,45.475V920.867H0V45.475C0,20.36,27.771,0,62.029,0Z" transform="translate(0 146)" fill="#fff"/>
      <g id="Home_Bar_-_Light" data-name="Home Bar - Light" transform="translate(0 852)" opacity="0.3">
        <path id="Rectangle_157" data-name="Rectangle 157" d="M0,0H428a0,0,0,0,1,0,0V6a38,38,0,0,1-38,38H38A38,38,0,0,1,0,6V0A0,0,0,0,1,0,0Z" fill="rgba(255,255,255,0)"/>
        <rect id="Rectangle_156" data-name="Rectangle 156" width="130" height="5" rx="2.5" transform="translate(149 27)" fill="#363636"/>
      </g>
      <g id="Group_1177" data-name="Group 1177" transform="translate(42 647.033)">
        <g id="Group_1176" data-name="Group 1176" clip-path="url(#clip-path)">
          <path id="Path_12011" data-name="Path 12011" d="M2.026,385.314a.421.421,0,0,1-.355-.193,12.549,12.549,0,0,1-1.66-3.927A.421.421,0,0,1,.83,381a11.707,11.707,0,0,0,1.549,3.664.421.421,0,0,1-.354.648" transform="translate(0 -362.66)" fill="#fff"/>
          <path id="Path_12012" data-name="Path 12012" d="M77.9,508.667a12.568,12.568,0,0,1-8.92-3.7.421.421,0,1,1,.595-.595,11.749,11.749,0,0,0,9.68,3.381.414.414,0,0,1,.465.37.42.42,0,0,1-.37.465,12.868,12.868,0,0,1-1.45.083" transform="translate(-65.597 -480.379)" fill="#fff"/>
          <path id="Path_12013" data-name="Path 12013" d="M218.27,519.822a.421.421,0,0,1-.3-.718l2.782-2.783-2.782-2.782a.421.421,0,0,1,.595-.595l3.08,3.08a.42.42,0,0,1,0,.595l-3.08,3.08a.419.419,0,0,1-.3.123" transform="translate(-207.539 -488.55)" fill="#fff"/>
          <path id="Path_12014" data-name="Path 12014" d="M170.749,210.08a12.1,12.1,0,0,1-4.486-.924.421.421,0,0,1,.33-.774c1.8.765,4.58,1.2,6.187.514a1.889,1.889,0,0,0,1.1-1.064,2.1,2.1,0,0,0-.028-1.843c-.447-.788-1.581-1.369-3.279-1.683-2.1-.388-4.485-1.18-4.232-3.88a3.042,3.042,0,0,1,1.505-2.323c1.5-.928,3.782-.907,6.251.058a.421.421,0,0,1-.306.784c-2.221-.868-4.228-.913-5.5-.125a2.217,2.217,0,0,0-1.109,1.685c-.152,1.619.875,2.481,3.546,2.974,1.978.365,3.276,1.07,3.858,2.095a2.924,2.924,0,0,1,.085,2.552,2.7,2.7,0,0,1-1.554,1.544,6.058,6.058,0,0,1-2.363.412" transform="translate(-158.15 -188.078)" fill="#fff"/>
          <path id="Path_12015" data-name="Path 12015" d="M254.173,171.579a.42.42,0,0,1-.421-.421V155.733a.421.421,0,0,1,.841,0v15.425a.42.42,0,0,1-.421.421" transform="translate(-241.742 -147.961)" fill="#fff"/>
          <path id="Path_12016" data-name="Path 12016" d="M469.665,186.732a.42.42,0,0,1-.409-.325,11.71,11.71,0,0,0-1.549-3.664.421.421,0,1,1,.708-.454,12.548,12.548,0,0,1,1.66,3.927.421.421,0,0,1-.314.505.429.429,0,0,1-.1.011" transform="translate(-445.507 -173.476)" fill="#fff"/>
          <path id="Path_12017" data-name="Path 12017" d="M231.318,67.5a.42.42,0,0,1-.3-.123,11.748,11.748,0,0,0-9.68-3.381.413.413,0,0,1-.466-.37.42.42,0,0,1,.37-.465,12.58,12.58,0,0,1,10.37,3.622.421.421,0,0,1-.3.718" transform="translate(-210.419 -60.09)" fill="#fff"/>
          <path id="Path_12018" data-name="Path 12018" d="M222.13,7a.419.419,0,0,1-.3-.123l-3.08-3.08a.421.421,0,0,1,0-.595l3.08-3.08a.421.421,0,0,1,.595.595L219.646,3.5l2.782,2.782a.421.421,0,0,1-.3.718" transform="translate(-208.283 0)" fill="#fff"/>
        </g>
      </g>
      <g id="Group_1260" data-name="Group 1260" transform="translate(42 370)">
        <g id="Rectangle_2154" data-name="Rectangle 2154" fill="#223f71" stroke="#707070" stroke-width="1">
          <rect width="62" height="62" rx="19" stroke="none"/>
          <rect x="0.5" y="0.5" width="61" height="61" rx="18.5" fill="none"/>
        </g>
        <text id="Mr._Ashraf_6_5360" data-name="Mr. Ashraf
**** **** ***6 5360" transform="translate(71 24)" fill="#223f71" font-size="16" font-family="Poppins-SemiBold, Poppins" font-weight="600"><tspan x="0" y="0">Mr. Ashraf</tspan><tspan x="0" y="25">**** **** ***6 5360</tspan></text>
        <text id="CW" transform="translate(12 41)" fill="#fff" font-size="24" font-family="SegoeUI-Bold, Segoe UI" font-weight="700" letter-spacing="0.012em"><tspan x="0" y="0">CW</tspan></text>
      </g>
      <g id="Group_1259" data-name="Group 1259" transform="translate(42 277)">
        <g id="Rectangle_2153" data-name="Rectangle 2153" fill="#223f71" stroke="#707070" stroke-width="1">
          <rect width="62" height="62" rx="19" stroke="none"/>
          <rect x="0.5" y="0.5" width="61" height="61" rx="18.5" fill="none"/>
        </g>
        <text id="Chiao_Yu_Wang_6_5360" data-name="Chiao Yu Wang
**** **** ***6 5360" transform="translate(71 24)" fill="#223f71" font-size="16" font-family="Poppins-SemiBold, Poppins" font-weight="600"><tspan x="0" y="0">Chiao Yu Wang</tspan><tspan x="0" y="25">**** **** ***6 5360</tspan></text>
        <g id="Group_1258" data-name="Group 1258" transform="translate(11 12)">
          <text id="MA" transform="translate(0 26)" fill="#fff" font-size="24" font-family="SegoeUI-Bold, Segoe UI" font-weight="700" letter-spacing="0.012em"><tspan x="0" y="0">MA</tspan></text>
        </g>
      </g>
      <g id="Group_1359" data-name="Group 1359" transform="translate(12 -1)">
        <g id="Rectangle_2155" data-name="Rectangle 2155" transform="translate(30 464)" fill="#223f71" stroke="#707070" stroke-width="1">
          <rect width="62" height="62" rx="19" stroke="none"/>
          <rect x="0.5" y="0.5" width="61" height="61" rx="18.5" fill="none"/>
        </g>
        <g id="Group_1358" data-name="Group 1358">
          <text id="Name_2_6_5360" data-name="Name 2
**** **** ***6 5360" transform="translate(106 488)" fill="#223f71" font-size="16" font-family="Poppins-SemiBold, Poppins" font-weight="600"><tspan x="0" y="0">Name 2</tspan><tspan x="0" y="25">**** **** ***6 5360</tspan></text>
          <text id="N2" transform="translate(45 505)" fill="#fff" font-size="24" font-family="SegoeUI-Bold, Segoe UI" font-weight="700" letter-spacing="0.012em"><tspan x="0" y="0">N2</tspan></text>
        </g>
      </g>
      <g id="Group_1360" data-name="Group 1360" transform="translate(12 12)">
        <g id="Rectangle_2156" data-name="Rectangle 2156" transform="translate(30 544)" fill="#223f71" stroke="#707070" stroke-width="1">
          <rect width="62" height="62" rx="19" stroke="none"/>
          <rect x="0.5" y="0.5" width="61" height="61" rx="18.5" fill="none"/>
        </g>
        <text id="Name_3_6_5360" data-name="Name 3
**** **** ***6 5360" transform="translate(106 568)" fill="#223f71" font-size="16" font-family="Poppins-SemiBold, Poppins" font-weight="600"><tspan x="0" y="0">Name 3</tspan><tspan x="0" y="25">**** **** ***6 5360</tspan></text>
        <text id="N3" transform="translate(42 585)" fill="#fff" font-size="24" font-family="SegoeUI-Bold, Segoe UI" font-weight="700" letter-spacing="0.012em"><tspan x="0" y="0">N3</tspan></text>
      </g>
      <g id="Group_1252" data-name="Group 1252" transform="translate(42 649)">
        <g id="Group_1251" data-name="Group 1251">
          <g id="Rectangle_2157" data-name="Rectangle 2157" fill="#223f71" stroke="#707070" stroke-width="1">
            <rect width="62" height="62" rx="19" stroke="none"/>
            <rect x="0.5" y="0.5" width="61" height="61" rx="18.5" fill="none"/>
          </g>
          <text id="Name_4_6_5360" data-name="Name 4
**** **** ***6 5360" transform="translate(71 18)" fill="#223f71" font-size="16" font-family="Poppins-SemiBold, Poppins" font-weight="600"><tspan x="0" y="0">Name 4</tspan><tspan x="0" y="25">**** **** ***6 5360</tspan></text>
        </g>
        <text id="N4" transform="translate(15 41)" fill="#fff" font-size="24" font-family="SegoeUI-Bold, Segoe UI" font-weight="700" letter-spacing="0.012em"><tspan x="0" y="0">N4</tspan></text>
      </g>
      <g id="Group_1253" data-name="Group 1253" transform="translate(42 742)">
        <g id="Group_1251-2" data-name="Group 1251">
          <g id="Rectangle_2157-2" data-name="Rectangle 2157" fill="#223f71" stroke="#707070" stroke-width="1">
            <rect width="62" height="62" rx="19" stroke="none"/>
            <rect x="0.5" y="0.5" width="61" height="61" rx="18.5" fill="none"/>
          </g>
          <text id="Name_4_6_5360-2" data-name="Name 4
**** **** ***6 5360" transform="translate(71 18)" fill="#223f71" font-size="16" font-family="Poppins-SemiBold, Poppins" font-weight="600"><tspan x="0" y="0">Name 4</tspan><tspan x="0" y="25">**** **** ***6 5360</tspan></text>
        </g>
        <text id="N4-2" data-name="N4" transform="translate(15 41)" fill="#fff" font-size="24" font-family="SegoeUI-Bold, Segoe UI" font-weight="700" letter-spacing="0.012em"><tspan x="0" y="0">N4</tspan></text>
      </g>
      <g id="Group_1254" data-name="Group 1254" transform="translate(30 843)">
        <g id="Group_1251-3" data-name="Group 1251">
          <g id="Rectangle_2157-3" data-name="Rectangle 2157" fill="#223f71" stroke="#707070" stroke-width="1">
            <rect width="62" height="62" rx="19" stroke="none"/>
            <rect x="0.5" y="0.5" width="61" height="61" rx="18.5" fill="none"/>
          </g>
          <text id="Name_4_6_5360-3" data-name="Name 4
**** **** ***6 5360" transform="translate(71 18)" fill="#223f71" font-size="16" font-family="Poppins-SemiBold, Poppins" font-weight="600"><tspan x="0" y="0">Name 4</tspan><tspan x="0" y="25">**** **** ***6 5360</tspan></text>
        </g>
        <text id="N4-3" data-name="N4" transform="translate(15 41)" fill="#fff" font-size="24" font-family="SegoeUI-Bold, Segoe UI" font-weight="700" letter-spacing="0.012em"><tspan x="0" y="0">N4</tspan></text>
      </g>
      <g id="Group_1255" data-name="Group 1255" transform="translate(30 928)">
        <g id="Group_1251-4" data-name="Group 1251">
          <g id="Rectangle_2157-4" data-name="Rectangle 2157" fill="#223f71" stroke="#707070" stroke-width="1">
            <rect width="62" height="62" rx="19" stroke="none"/>
            <rect x="0.5" y="0.5" width="61" height="61" rx="18.5" fill="none"/>
          </g>
          <text id="Name_4_6_5360-4" data-name="Name 4
**** **** ***6 5360" transform="translate(71 18)" fill="#223f71" font-size="16" font-family="Poppins-SemiBold, Poppins" font-weight="600"><tspan x="0" y="0">Name 4</tspan><tspan x="0" y="25">**** **** ***6 5360</tspan></text>
        </g>
        <text id="N4-4" data-name="N4" transform="translate(15 41)" fill="#fff" font-size="24" font-family="SegoeUI-Bold, Segoe UI" font-weight="700" letter-spacing="0.012em"><tspan x="0" y="0">N4</tspan></text>
      </g>
      <g id="Group_1256" data-name="Group 1256" transform="translate(30 1022)">
        <g id="Group_1251-5" data-name="Group 1251">
          <g id="Rectangle_2157-5" data-name="Rectangle 2157" fill="#223f71" stroke="#707070" stroke-width="1">
            <rect width="62" height="62" rx="19" stroke="none"/>
            <rect x="0.5" y="0.5" width="61" height="61" rx="18.5" fill="none"/>
          </g>
          <text id="Name_4_6_5360-5" data-name="Name 4
**** **** ***6 5360" transform="translate(71 18)" fill="#223f71" font-size="16" font-family="Poppins-SemiBold, Poppins" font-weight="600"><tspan x="0" y="0">Name 4</tspan><tspan x="0" y="25">**** **** ***6 5360</tspan></text>
        </g>
        <text id="N4-5" data-name="N4" transform="translate(15 41)" fill="#fff" font-size="24" font-family="SegoeUI-Bold, Segoe UI" font-weight="700" letter-spacing="0.012em"><tspan x="0" y="0">N4</tspan></text>
      </g>
      <g transform="matrix(1, 0, 0, 1, 0, 0)" filter="url(#Rectangle_2202)">
        <path id="Rectangle_2202-2" data-name="Rectangle 2202" d="M45,0H371a57,57,0,0,1,57,57v47a0,0,0,0,1,0,0H0a0,0,0,0,1,0,0V45A45,45,0,0,1,45,0Z" transform="translate(0 146)" fill="#fff"/>
      </g>
      <g id="back" transform="translate(30 60)">
        <circle id="bg-3" data-name="bg" cx="24" cy="24" r="24" fill="none"/>
        <g id="_24px-10" data-name="24px-10" transform="translate(17 12)">
          <path id="Path_104" data-name="Path 104" d="M11.67,3.87,9.9,2.1,0,12l9.9,9.9,1.77-1.77L3.54,12Z" fill="#223f71"/>
          <path id="Path_105" data-name="Path 105" d="M0,0H24V24H0Z" fill="none"/>
        </g>
      </g>
      <g transform="matrix(1, 0, 0, 1, 0, 0)" filter="url(#Rectangle_2201)">
        <rect id="Rectangle_2201-2" data-name="Rectangle 2201" width="428" height="101" rx="18" transform="translate(0 825)" fill="#fff"/>
      </g>
      <g id="Group_1257" data-name="Group 1257" transform="translate(42 851)">
        <rect id="Rectangle_2158" data-name="Rectangle 2158" width="345" height="45" rx="11" fill="#223f71"/>
        <text id="Next" transform="translate(145 33)" fill="#fff" font-size="24" font-family="SegoeUI-Bold, Segoe UI" font-weight="700" letter-spacing="0.012em"><tspan x="0" y="0">Next</tspan></text>
      </g>
    </g>
    <g id="back-2" data-name="back" transform="translate(42 44)">
      <circle id="bg-4" data-name="bg" cx="24" cy="24" r="24" fill="none"/>
      <g id="_24px-10-2" data-name="24px-10" transform="translate(17 12)">
        <path id="Path_104-2" data-name="Path 104" d="M11.67,3.87,9.9,2.1,0,12l9.9,9.9,1.77-1.77L3.54,12Z" fill="#fefeff"/>
        <path id="Path_105-2" data-name="Path 105" d="M0,0H24V24H0Z" fill="none"/>
      </g>
    </g>
    <g id="Group_1163" data-name="Group 1163" transform="translate(-281.507 233.499)">
      <g id="Group_5-2" data-name="Group 5" transform="translate(462.565 -171)">
        <path id="Path_19" data-name="Path 19" d="M249.007,408.763s-2.484,4.771-.283,6.042,6.268-1.384,6.268-1.384l5.618-3.868s13.254,6.65,25.785-2.964c0,0,13.985,8.78,18.156,3.937,0,0,3.367-4.814-12.31-20.49,0,0,11.341,11.845,9.174,16.347s-17.924-5.836-17.924-5.836S270.278,391.294,270.4,391s-5.919,6.336-5.919,6.336l.875.667,2.209-1s.166-.459.75.334,1.793,1.334,1.793,3.752a12.85,12.85,0,0,1-.667,4.168s4.294-3.543,5.46-5.377c0,0,5.992,4.072,7.312,4.527,0,0-7.6,5-18.782-.387,0,0-3.864,4.683-6.323,6.264S246.872,417.838,249.007,408.763Z" transform="translate(-238.972 -356.148)" fill="#fff"/>
        <path id="Path_20" data-name="Path 20" d="M269.371,405.98s-4.135,4.174-3.043,5.578c0,0,2.333-.351,5.009-4.252,0,0-3.527,6.007-7.311,6.671C264.027,413.977,263.676,410.7,269.371,405.98Z" transform="translate(-247.172 -364.213)" fill="#fff"/>
        <path id="Path_21" data-name="Path 21" d="M267.049,407.593s-5.066,7.006-8.905,7.243c0,0-1.544-2.652,5.225-9.578,0,0-9.46,7.4-9.223,14.17C254.146,419.428,260.4,418.4,267.049,407.593Z" transform="translate(-242.173 -363.848)" fill="#fff"/>
        <path id="Path_22" data-name="Path 22" d="M241.237,376.712a23.181,23.181,0,0,1,6.164-9.576s-6.757-6.042-5.324-17.283c0,0,.147-.514.616.076s5.736,5.358,6.014,5.474.185.6,0,.765a21.276,21.276,0,0,0-3.128,4.679s4.865-3.266,8.317.348l-.326,2.36a1.1,1.1,0,0,0,.515,1.23,69.619,69.619,0,0,1,5.182-6.626s-21.81-17.207-22.5-20.832c0,0-4.548-5.894,0-7.09s16.024,5.28,16.024,5.28-17.953-10.913-22.389-6.407c0,0-3.38,3.239,7.674,15.982,0,0-6.386,12.168,4.647,26.129C242.729,371.22,241.837,373.954,241.237,376.712Z" transform="translate(-229.921 -324.775)" fill="#fff"/>
        <path id="Path_23" data-name="Path 23" d="M276.178,395.186s9.5-12.522,10.754-12.444c0,0,.7-.158-.4,1.264S276.929,394.989,276.178,395.186Z" transform="translate(-253.321 -352.456)" fill="#fff"/>
        <path id="Path_24" data-name="Path 24" d="M285.873,355.343l6.711,5.18a8.4,8.4,0,0,0,0-6.028s-.226-.5.713-1.272,14.626-14.428,20.2-31.768c0,0-17.957,9.722-29.135,25.5a7.727,7.727,0,0,0-7.141,1.336s-.522.854.427.332,3.322-2.207,6.027-1.281c0,0,.356.427-.356.379s-2.325-.285-5.528,1.471l4.057,3.346,2.893-3.8a2.161,2.161,0,0,0,.24-1.775s12.8-16.286,27.025-23.868c0,0,.476.076-.427.563s-17.336,13.839-21.872,20.411c0,0-1.1,1.628-7.587,8.781l1,.75s3.22-3.852,4.264-4.029c0,0,.738.127.219.76,0,0-.467-.355-1.76,1.014a24.1,24.1,0,0,0-2.129,2.584s.025.3.279.152,2.84-3.9,3.835-2.788-.445,2.413-.445,2.413Z" transform="translate(-253.777 -321.455)" fill="#fff"/>
        <path id="Path_25" data-name="Path 25" d="M254.845,349.606a40.72,40.72,0,0,1-3.174-3.237s3.426-4.557,6.695-6.6l2.954,1.446A18.846,18.846,0,0,0,254.845,349.606Z" transform="translate(-240.924 -330.719)" fill="#fff"/>
        <path id="Path_26" data-name="Path 26" d="M269.959,333.645s10.008-7.48,25.226.206c0,0,.427.552-.727.2s-9.606-6.22-22.155.972Z" transform="translate(-250.175 -325.97)" fill="#fff"/>
        <path id="Path_27" data-name="Path 27" d="M327.969,404.651l2.7,1.738s3.69-4.293,4.825-8.408l-1.348-1.632A18.561,18.561,0,0,1,327.969,404.651Z" transform="translate(-279.52 -359.342)" fill="#fff"/>
        <path id="Path_28" data-name="Path 28" d="M340.212,373.31l1.329,1.33s2.889-10.27-2.98-19.622c0,0-.653-.372-.146.585A21.527,21.527,0,0,1,340.212,373.31Z" transform="translate(-284.707 -338.397)" fill="#fff"/>
        <path id="Path_29" data-name="Path 29" d="M323.959,381.284s.614.865,1.389-.278a14.884,14.884,0,0,1,1.292-1.692s-1.227,2.519-.936,2.841,2.131,1.873,2.131,1.873l-2.228-1.1s-.42-.419-.807.259A13.736,13.736,0,0,1,323.346,385l.936-2.163s.516-.323-.452-.9a11.663,11.663,0,0,1-1.808-1.389Z" transform="translate(-276.512 -350.724)" fill="#fff"/>
        <path id="Path_30" data-name="Path 30" d="M278.166,354.97l1.375,1.091a.46.46,0,0,1,.081.634,7.85,7.85,0,0,0-.618,1.382,6.409,6.409,0,0,0,1.024-1.138c.163-.26.26-.649,1.008-.137a4.3,4.3,0,0,0,1.317.64,16.876,16.876,0,0,0-1.511-1.267s-.277-.163-.016-.585a4.8,4.8,0,0,0,.731-1.609,4.42,4.42,0,0,0-1.3,1.431s-.036.39-.491.065A5.176,5.176,0,0,0,278.166,354.97Z" transform="translate(-254.326 -337.908)" fill="#fff"/>
        <path id="Path_31" data-name="Path 31" d="M297.162,338.071l-1.663,2.073s-.151.67-1.187.108-1.9-.978-1.9-.978l1.922,1.778s.324.13.151.6-.756,2.073-.756,2.073l1.416-1.62s.1-.518,1.089-.043,1.9.885,1.9.885l-2.052-1.642s-.281-.259-.043-.928S297.162,338.071,297.162,338.071Z" transform="translate(-261.532 -329.86)" fill="#fff"/>
      </g>
    </g>
    <text id="Pull_Back_Money_From" data-name="Pull Back Money From" transform="translate(85 199)" fill="#223f71" font-size="24" font-family="SegoeUI-Bold, Segoe UI" font-weight="700" letter-spacing="0.012em"><tspan x="0" y="0">Pull Back Money From</tspan></text>
  </g>
</svg>
