<svg xmlns="http://www.w3.org/2000/svg" xmlns:xlink="http://www.w3.org/1999/xlink" width="428" height="926" viewBox="0 0 428 926">
  <defs>
    <clipPath id="clip-path">
      <path id="Progress" d="M.252,15.516a85.033,85.033,0,0,1,8.229-2.572A186.266,186.266,0,0,1,32.268,8.306a257.342,257.342,0,0,1,38-2.088,317.226,317.226,0,0,1,50.861,5.077,316.035,316.035,0,0,0,50.247,5.1,238.446,238.446,0,0,0,36.649-2.041,162.279,162.279,0,0,0,22.438-4.591,70.845,70.845,0,0,0,7.615-2.55l1.641,46.994L1.893,62.51Z" fill="#f5a3dd"/>
    </clipPath>
    <clipPath id="clip-Sign_Up_4">
      <rect width="428" height="926"/>
    </clipPath>
  </defs>
  <g id="Sign_Up_4" data-name="Sign Up – 4" clip-path="url(#clip-Sign_Up_4)">
    <rect width="428" height="926" fill="#223f71"/>
    <g id="Status_Bar_-_Light" data-name="Status Bar - Light">
      <path id="Subtraction_13" data-name="Subtraction 13" d="M414,44H0V38A37.969,37.969,0,0,1,38,0H86.064a7.011,7.011,0,0,1,3.975,2.073,7.132,7.132,0,0,1,1.792,3.1c.181.724.372,1.671.592,2.768.422,2.1.947,4.721,1.729,7.365a21.545,21.545,0,0,0,5.257,8.825,19.293,19.293,0,0,0,6.076,4.111,23.626,23.626,0,0,0,9.124,1.791c5.653.053,40.9.064,69.467.064,52.557,0,112.862-.038,115.682-.064a23.626,23.626,0,0,0,9.124-1.791,19.3,19.3,0,0,0,6.076-4.111,21.554,21.554,0,0,0,5.258-8.825c.782-2.648,1.308-5.267,1.73-7.372.219-1.094.409-2.039.59-2.762a7.249,7.249,0,0,1,1.722-3.1,6.736,6.736,0,0,1,4-2.073H376a37.968,37.968,0,0,1,38,38v6Z" transform="translate(0 0)" fill="none"/>
      <g id="Group_5" data-name="Group 5" transform="translate(332 17)">
        <path id="Wifi" d="M70.995,7.359a9.772,9.772,0,0,1,6.329,2.306L78.5,8.395a11.176,11.176,0,0,0-15-.009l1.174,1.272a9.771,9.771,0,0,1,6.321-2.3Zm0,3.666a5.939,5.939,0,0,1,3.8,1.366l1.245-1.344a7.722,7.722,0,0,0-10.092-.005l1.243,1.346a5.937,5.937,0,0,1,3.8-1.362Zm2.56,2.71a3.92,3.92,0,0,0-5.117,0L70.994,16.5l2.56-2.766Z" transform="translate(-40.5 -5.5)" fill="#fff" fill-rule="evenodd"/>
        <path id="Mobile-Signal" d="M14.069.576A.588.588,0,0,1,14.662,0h1.745A.58.58,0,0,1,17,.576v9.849a.588.588,0,0,1-.593.576H14.662a.58.58,0,0,1-.593-.576Zm-4.69,2.9A.591.591,0,0,1,9.972,2.9h1.745a.594.594,0,0,1,.593.583v6.94a.591.591,0,0,1-.593.583H9.972a.594.594,0,0,1-.593-.583ZM4.69,5.787a.588.588,0,0,1,.593-.576H7.028a.579.579,0,0,1,.593.576v4.637A.588.588,0,0,1,7.028,11H5.283a.579.579,0,0,1-.593-.576ZM0,8.1a.587.587,0,0,1,.593-.574H2.338a.579.579,0,0,1,.593.574v2.327A.587.587,0,0,1,2.338,11H.593A.579.579,0,0,1,0,10.428Z" fill="#fff" fill-rule="evenodd"/>
        <g id="Battery" transform="translate(44 1)">
          <path id="Tip" d="M23,3.5a1.852,1.852,0,0,1,1.5,1.75A1.852,1.852,0,0,1,23,7Z" transform="translate(-3 -0.5)" fill="#fff" fill-rule="evenodd"/>
          <rect id="Fill" width="15" height="5.5" rx="1" transform="translate(2 2)" fill="#fff"/>
          <g id="Outline" fill="none" stroke="#fff" stroke-width="1" opacity="0.4">
            <rect width="19" height="9.5" rx="2.5" stroke="none"/>
            <rect x="0.5" y="0.5" width="18" height="8.5" rx="2" fill="none"/>
          </g>
        </g>
      </g>
      <text id="_9:41_AM" data-name="9:41 AM" transform="translate(49.396 28.436)" fill="#fff" font-size="15" font-family="SegoeUI, Segoe UI"><tspan x="-13.755" y="0">9:41</tspan></text>
    </g>
    <g id="Home_Bar_-_Light" data-name="Home Bar - Light" transform="translate(0 882)" opacity="0.3">
      <path id="Rectangle_157" data-name="Rectangle 157" d="M0,0H428a0,0,0,0,1,0,0V6a38,38,0,0,1-38,38H38A38,38,0,0,1,0,6V0A0,0,0,0,1,0,0Z" fill="rgba(255,255,255,0)"/>
      <rect id="Rectangle_156" data-name="Rectangle 156" width="130" height="5" rx="2.5" transform="translate(150 27)" fill="#363636"/>
    </g>
    <g id="Status_Bar_-_Light-2" data-name="Status Bar - Light">
      <path id="Subtraction_13-2" data-name="Subtraction 13" d="M414,44H0V38A37.969,37.969,0,0,1,38,0H86.064a7.011,7.011,0,0,1,3.975,2.073,7.132,7.132,0,0,1,1.792,3.1c.181.724.372,1.671.592,2.768.422,2.1.947,4.721,1.729,7.365a21.545,21.545,0,0,0,5.257,8.825,19.293,19.293,0,0,0,6.076,4.111,23.626,23.626,0,0,0,9.124,1.791c5.653.053,40.9.064,69.467.064,52.557,0,112.862-.038,115.682-.064a23.626,23.626,0,0,0,9.124-1.791,19.3,19.3,0,0,0,6.076-4.111,21.554,21.554,0,0,0,5.258-8.825c.782-2.648,1.308-5.267,1.73-7.372.219-1.094.409-2.039.59-2.762a7.249,7.249,0,0,1,1.722-3.1,6.736,6.736,0,0,1,4-2.073H376a37.968,37.968,0,0,1,38,38v6Z" transform="translate(0 0)" fill="none"/>
      <g id="Group_5-2" data-name="Group 5" transform="translate(332 17)">
        <path id="Wifi-2" data-name="Wifi" d="M70.995,7.359a9.772,9.772,0,0,1,6.329,2.306L78.5,8.395a11.176,11.176,0,0,0-15-.009l1.174,1.272a9.771,9.771,0,0,1,6.321-2.3Zm0,3.666a5.939,5.939,0,0,1,3.8,1.366l1.245-1.344a7.722,7.722,0,0,0-10.092-.005l1.243,1.346a5.937,5.937,0,0,1,3.8-1.362Zm2.56,2.71a3.92,3.92,0,0,0-5.117,0L70.994,16.5l2.56-2.766Z" transform="translate(-40.5 -5.5)" fill="#fff" fill-rule="evenodd"/>
        <path id="Mobile-Signal-2" data-name="Mobile-Signal" d="M14.069.576A.588.588,0,0,1,14.662,0h1.745A.58.58,0,0,1,17,.576v9.849a.588.588,0,0,1-.593.576H14.662a.58.58,0,0,1-.593-.576Zm-4.69,2.9A.591.591,0,0,1,9.972,2.9h1.745a.594.594,0,0,1,.593.583v6.94a.591.591,0,0,1-.593.583H9.972a.594.594,0,0,1-.593-.583ZM4.69,5.787a.588.588,0,0,1,.593-.576H7.028a.579.579,0,0,1,.593.576v4.637A.588.588,0,0,1,7.028,11H5.283a.579.579,0,0,1-.593-.576ZM0,8.1a.587.587,0,0,1,.593-.574H2.338a.579.579,0,0,1,.593.574v2.327A.587.587,0,0,1,2.338,11H.593A.579.579,0,0,1,0,10.428Z" fill="#fff" fill-rule="evenodd"/>
        <g id="Battery-2" data-name="Battery" transform="translate(44 1)">
          <path id="Tip-2" data-name="Tip" d="M23,3.5a1.852,1.852,0,0,1,1.5,1.75A1.852,1.852,0,0,1,23,7Z" transform="translate(-3 -0.5)" fill="#fff" fill-rule="evenodd"/>
          <rect id="Fill-2" data-name="Fill" width="15" height="5.5" rx="1" transform="translate(2 2)" fill="#fff"/>
          <g id="Outline-2" data-name="Outline" fill="none" stroke="#fff" stroke-width="1" opacity="0.4">
            <rect width="19" height="9.5" rx="2.5" stroke="none"/>
            <rect x="0.5" y="0.5" width="18" height="8.5" rx="2" fill="none"/>
          </g>
        </g>
      </g>
      <text id="_9:41_AM-2" data-name="9:41 AM" transform="translate(49.396 28.436)" fill="#fff" font-size="15" font-family="SegoeUI, Segoe UI"><tspan x="-13.755" y="0">9:41</tspan></text>
    </g>
    <g id="Group_1164" data-name="Group 1164" transform="translate(-324.466 555.482)">
      <g id="Group_5-3" data-name="Group 5" transform="translate(460.54 -171)">
        <path id="Path_19" data-name="Path 19" d="M250.382,430.357s-5.349,10.273-.608,13.01,13.5-2.979,13.5-2.979l12.1-8.328s28.536,14.318,55.518-6.383c0,0,30.11,18.9,39.09,8.476,0,0,7.249-10.365-26.505-44.117,0,0,24.419,25.5,19.752,35.2s-38.591-12.565-38.591-12.565-28.449-19.923-28.18-20.552-12.744,13.642-12.744,13.642l1.884,1.436,4.757-2.154s.358-.987,1.615.718,3.86,2.871,3.86,8.077a27.665,27.665,0,0,1-1.436,8.974s9.245-7.628,11.756-11.576c0,0,12.9,8.768,15.744,9.747,0,0-16.363,10.764-40.438-.833,0,0-8.319,10.084-13.613,13.487S245.786,449.895,250.382,430.357Z" transform="translate(-228.778 -317.072)" fill="#fff"/>
        <path id="Path_20" data-name="Path 20" d="M275.539,405.98s-8.9,8.987-6.552,12.01c0,0,5.023-.756,10.785-9.155,0,0-7.593,12.934-15.741,14.363C264.032,423.2,263.276,416.142,275.539,405.98Z" transform="translate(-227.742 -316.053)" fill="#fff"/>
        <path id="Path_21" data-name="Path 21" d="M281.932,410.286s-10.908,15.084-19.174,15.595c0,0-3.324-5.71,11.249-20.623,0,0-20.367,15.936-19.857,30.509C254.151,435.767,267.615,433.551,281.932,410.286Z" transform="translate(-228.373 -316.099)" fill="#fff"/>
        <path id="Path_22" data-name="Path 22" d="M254.286,432.859a49.91,49.91,0,0,1,13.272-20.619s-14.548-13.008-11.464-37.211c0,0,.316-1.108,1.327.163s12.35,11.536,12.949,11.785.4,1.3,0,1.647a45.8,45.8,0,0,0-6.735,10.075s10.475-7.033,17.908.749l-.7,5.081s-.536,1.351,1.11,2.648a149.879,149.879,0,0,1,11.156-14.266s-46.959-37.048-48.436-44.853c0,0-9.793-12.689,0-15.266s34.5,11.369,34.5,11.369-38.655-23.5-48.2-13.795c0,0-7.277,6.974,16.523,34.411,0,0-13.75,26.2,10.006,56.259C257.5,421.036,255.576,426.921,254.286,432.859Z" transform="translate(-229.921 -321.035)" fill="#fff"/>
        <path id="Path_23" data-name="Path 23" d="M276.178,409.541s20.453-26.962,23.155-26.793c0,0,1.512-.339-.87,2.723S277.794,409.117,276.178,409.541Z" transform="translate(-226.965 -317.538)" fill="#fff"/>
        <path id="Path_24" data-name="Path 24" d="M296.012,394.419l14.449,11.152s2.776-6.512,0-12.979c0,0-.486-1.078,1.535-2.738s31.491-31.065,43.5-68.4c0,0-38.663,20.933-62.73,54.912a16.638,16.638,0,0,0-15.376,2.877s-1.124,1.839.92.715,7.152-4.751,12.977-2.759c0,0,.766.919-.767.817s-5.007-.613-11.9,3.167l8.736,7.2,6.229-8.176a4.654,4.654,0,0,0,.516-3.823s27.559-35.066,58.188-51.39c0,0,1.026.164-.92,1.212s-37.326,29.8-47.093,43.946c0,0-2.37,3.506-16.336,18.907l2.16,1.614s6.934-8.293,9.182-8.675c0,0,1.588.272.472,1.636,0,0-1.006-.764-3.789,2.183a51.891,51.891,0,0,0-4.583,5.564s.054.656.6.328,6.114-8.407,8.258-6-.958,5.2-.958,5.2Z" transform="translate(-226.907 -321.455)" fill="#fff"/>
        <path id="Path_25" data-name="Path 25" d="M258.506,360.949c-.15.365-6.835-6.97-6.835-6.97s7.376-9.812,14.414-14.211l6.361,3.113S263.648,348.43,258.506,360.949Z" transform="translate(-228.531 -320.284)" fill="#fff"/>
        <path id="Path_26" data-name="Path 26" d="M269.959,337.409s21.547-16.105,54.314.444c0,0,.919,1.187-1.566.423s-20.682-13.392-47.7,2.093Z" transform="translate(-227.362 -320.884)" fill="#fff"/>
        <path id="Path_27" data-name="Path 27" d="M327.969,414.224l5.8,3.743s7.944-9.242,10.388-18.1l-2.9-3.514A39.963,39.963,0,0,1,327.969,414.224Z" transform="translate(-223.655 -316.668)" fill="#fff"/>
        <path id="Path_28" data-name="Path 28" d="M342.505,394.484l2.862,2.863s6.22-22.111-6.415-42.248c0,0-1.406-.8-.315,1.26A46.35,46.35,0,0,1,342.505,394.484Z" transform="translate(-222.999 -319.314)" fill="#fff"/>
        <path id="Path_29" data-name="Path 29" d="M326.193,383.555s1.321,1.863,2.99-.6a32.026,32.026,0,0,1,2.781-3.643s-2.642,5.423-2.016,6.118,4.589,4.032,4.589,4.032l-4.8-2.364s-.9-.9-1.738.557a29.58,29.58,0,0,1-3.128,3.893l2.016-4.658s1.112-.695-.973-1.946a25.112,25.112,0,0,1-3.893-2.99Z" transform="translate(-224.035 -317.757)" fill="#fff"/>
        <path id="Path_30" data-name="Path 30" d="M278.166,356.111l2.961,2.349a.99.99,0,0,1,.174,1.365,16.908,16.908,0,0,0-1.33,2.975,13.793,13.793,0,0,0,2.206-2.449c.35-.561.559-1.4,2.169-.3a9.263,9.263,0,0,0,2.835,1.379,36.318,36.318,0,0,0-3.255-2.729s-.6-.35-.035-1.26a10.327,10.327,0,0,0,1.575-3.465,9.517,9.517,0,0,0-2.793,3.08s-.077.841-1.056.14A11.144,11.144,0,0,0,278.166,356.111Z" transform="translate(-226.838 -319.376)" fill="#fff"/>
        <path id="Path_31" data-name="Path 31" d="M302.64,338.071l-3.581,4.464s-.326,1.442-2.557.232-4.093-2.106-4.093-2.106l4.139,3.828s.7.279.326,1.3-1.627,4.464-1.627,4.464l3.048-3.488s.206-1.116,2.345-.093,4.092,1.907,4.092,1.907l-4.417-3.534s-.6-.558-.093-2S302.64,338.071,302.64,338.071Z" transform="translate(-225.927 -320.393)" fill="#fff"/>
      </g>
    </g>
    <g id="Ellipse_130" data-name="Ellipse 130" transform="translate(200.732 268.504) rotate(43)" fill="none" stroke="#fff" stroke-width="15" opacity="0.502">
      <circle cx="127" cy="127" r="127" stroke="none"/>
      <circle cx="127" cy="127" r="119.5" fill="none"/>
    </g>
    <g id="Progress-2" data-name="Progress" transform="translate(89.276 510.34)" opacity="0.5" clip-path="url(#clip-path)">
      <path id="Ellipse_131" data-name="Ellipse 131" d="M91.2,3.185A112.136,112.136,0,0,1,126.9,7.61a95.689,95.689,0,0,1,29.53,14.437,73.985,73.985,0,0,1,20.346,22.232,58.547,58.547,0,0,1,1.96,56.12A73.985,73.985,0,0,1,159.993,124a95.689,95.689,0,0,1-28.451,16.462,114.138,114.138,0,0,1-71,2.479A95.688,95.688,0,0,1,31.011,128.5a73.984,73.984,0,0,1-20.346-22.232A58.547,58.547,0,0,1,8.7,50.148a73.984,73.984,0,0,1,18.746-23.6A95.688,95.688,0,0,1,55.9,10.09,112.136,112.136,0,0,1,91.2,3.185Z" transform="translate(24.13 -101.482)" fill="#f5eaea"/>
    </g>
  </g>
</svg>
