<svg xmlns="http://www.w3.org/2000/svg" xmlns:xlink="http://www.w3.org/1999/xlink" width="428" height="926" viewBox="0 0 428 926">
  <defs>
    <clipPath id="clip-Sign_in_2_1">
      <rect width="428" height="926"/>
    </clipPath>
  </defs>
  <g id="Sign_in_2_1" data-name="Sign in 2 – 1" clip-path="url(#clip-Sign_in_2_1)">
    <rect width="428" height="926" fill="#223f71"/>
    <path id="BG" d="M62.029,0H365.971C400.229,0,428,18.085,428,40.4V818H0V40.4C0,18.085,27.771,0,62.029,0Z" transform="translate(0 108)" fill="#fff"/>
    <g id="Status_Bar_-_Light" data-name="Status Bar - Light">
      <path id="Subtraction_13" data-name="Subtraction 13" d="M414,44H0V38A37.969,37.969,0,0,1,38,0H86.064a7.011,7.011,0,0,1,3.975,2.073,7.132,7.132,0,0,1,1.792,3.1c.181.724.372,1.671.592,2.768.422,2.1.947,4.721,1.729,7.365a21.545,21.545,0,0,0,5.257,8.825,19.293,19.293,0,0,0,6.076,4.111,23.626,23.626,0,0,0,9.124,1.791c5.653.053,40.9.064,69.467.064,52.557,0,112.862-.038,115.682-.064a23.626,23.626,0,0,0,9.124-1.791,19.3,19.3,0,0,0,6.076-4.111,21.554,21.554,0,0,0,5.258-8.825c.782-2.648,1.308-5.267,1.73-7.372.219-1.094.409-2.039.59-2.762a7.249,7.249,0,0,1,1.722-3.1,6.736,6.736,0,0,1,4-2.073H376a37.968,37.968,0,0,1,38,38v6Z" transform="translate(0 0)" fill="none"/>
      <g id="Group_5" data-name="Group 5" transform="translate(332 17)">
        <path id="Wifi" d="M70.995,7.359a9.772,9.772,0,0,1,6.329,2.306L78.5,8.395a11.176,11.176,0,0,0-15-.009l1.174,1.272a9.771,9.771,0,0,1,6.321-2.3Zm0,3.666a5.939,5.939,0,0,1,3.8,1.366l1.245-1.344a7.722,7.722,0,0,0-10.092-.005l1.243,1.346a5.937,5.937,0,0,1,3.8-1.362Zm2.56,2.71a3.92,3.92,0,0,0-5.117,0L70.994,16.5l2.56-2.766Z" transform="translate(-40.5 -5.5)" fill="#fff" fill-rule="evenodd"/>
        <path id="Mobile-Signal" d="M14.069.576A.588.588,0,0,1,14.662,0h1.745A.58.58,0,0,1,17,.576v9.849a.588.588,0,0,1-.593.576H14.662a.58.58,0,0,1-.593-.576Zm-4.69,2.9A.591.591,0,0,1,9.972,2.9h1.745a.594.594,0,0,1,.593.583v6.94a.591.591,0,0,1-.593.583H9.972a.594.594,0,0,1-.593-.583ZM4.69,5.787a.588.588,0,0,1,.593-.576H7.028a.579.579,0,0,1,.593.576v4.637A.588.588,0,0,1,7.028,11H5.283a.579.579,0,0,1-.593-.576ZM0,8.1a.587.587,0,0,1,.593-.574H2.338a.579.579,0,0,1,.593.574v2.327A.587.587,0,0,1,2.338,11H.593A.579.579,0,0,1,0,10.428Z" fill="#fff" fill-rule="evenodd"/>
        <g id="Battery" transform="translate(44 1)">
          <path id="Tip" d="M23,3.5a1.852,1.852,0,0,1,1.5,1.75A1.852,1.852,0,0,1,23,7Z" transform="translate(-3 -0.5)" fill="#fff" fill-rule="evenodd"/>
          <rect id="Fill" width="15" height="5.5" rx="1" transform="translate(2 2)" fill="#fff"/>
          <g id="Outline" fill="none" stroke="#fff" stroke-width="1" opacity="0.4">
            <rect width="19" height="9.5" rx="2.5" stroke="none"/>
            <rect x="0.5" y="0.5" width="18" height="8.5" rx="2" fill="none"/>
          </g>
        </g>
      </g>
      <text id="_9:41_AM" data-name="9:41 AM" transform="translate(49.396 28.436)" fill="#fff" font-size="15" font-family="SegoeUI, Segoe UI"><tspan x="-13.755" y="0">9:41</tspan></text>
    </g>
    <g id="Home_Bar_-_Light" data-name="Home Bar - Light" transform="translate(0 882)" opacity="0.3">
      <path id="Rectangle_157" data-name="Rectangle 157" d="M0,0H428a0,0,0,0,1,0,0V6a38,38,0,0,1-38,38H38A38,38,0,0,1,0,6V0A0,0,0,0,1,0,0Z" fill="rgba(255,255,255,0)"/>
      <rect id="Rectangle_156" data-name="Rectangle 156" width="130" height="5" rx="2.5" transform="translate(150 27)" fill="#363636"/>
    </g>
    <g id="Group_1163" data-name="Group 1163" transform="translate(-281.507 215)">
      <g id="Group_5-2" data-name="Group 5" transform="translate(462.565 -171)">
        <path id="Path_19" data-name="Path 19" d="M249.007,408.763s-2.484,4.771-.283,6.042,6.268-1.384,6.268-1.384l5.618-3.868s13.254,6.65,25.785-2.964c0,0,13.985,8.78,18.156,3.937,0,0,3.367-4.814-12.31-20.49,0,0,11.341,11.845,9.174,16.347s-17.924-5.836-17.924-5.836S270.278,391.294,270.4,391s-5.919,6.336-5.919,6.336l.875.667,2.209-1s.166-.459.75.334,1.793,1.334,1.793,3.752a12.85,12.85,0,0,1-.667,4.168s4.294-3.543,5.46-5.377c0,0,5.992,4.072,7.312,4.527,0,0-7.6,5-18.782-.387,0,0-3.864,4.683-6.323,6.264S246.872,417.838,249.007,408.763Z" transform="translate(-238.972 -356.148)" fill="#fff"/>
        <path id="Path_20" data-name="Path 20" d="M269.371,405.98s-4.135,4.174-3.043,5.578c0,0,2.333-.351,5.009-4.252,0,0-3.527,6.007-7.311,6.671C264.027,413.977,263.676,410.7,269.371,405.98Z" transform="translate(-247.172 -364.213)" fill="#fff"/>
        <path id="Path_21" data-name="Path 21" d="M267.049,407.593s-5.066,7.006-8.905,7.243c0,0-1.544-2.652,5.225-9.578,0,0-9.46,7.4-9.223,14.17C254.146,419.428,260.4,418.4,267.049,407.593Z" transform="translate(-242.173 -363.848)" fill="#fff"/>
        <path id="Path_22" data-name="Path 22" d="M241.237,376.712a23.181,23.181,0,0,1,6.164-9.576s-6.757-6.042-5.324-17.283c0,0,.147-.514.616.076s5.736,5.358,6.014,5.474.185.6,0,.765a21.276,21.276,0,0,0-3.128,4.679s4.865-3.266,8.317.348l-.326,2.36a1.1,1.1,0,0,0,.515,1.23,69.619,69.619,0,0,1,5.182-6.626s-21.81-17.207-22.5-20.832c0,0-4.548-5.894,0-7.09s16.024,5.28,16.024,5.28-17.953-10.913-22.389-6.407c0,0-3.38,3.239,7.674,15.982,0,0-6.386,12.168,4.647,26.129C242.729,371.22,241.837,373.954,241.237,376.712Z" transform="translate(-229.921 -324.775)" fill="#fff"/>
        <path id="Path_23" data-name="Path 23" d="M276.178,395.186s9.5-12.522,10.754-12.444c0,0,.7-.158-.4,1.264S276.929,394.989,276.178,395.186Z" transform="translate(-253.321 -352.456)" fill="#fff"/>
        <path id="Path_24" data-name="Path 24" d="M285.873,355.343l6.711,5.18a8.4,8.4,0,0,0,0-6.028s-.226-.5.713-1.272,14.626-14.428,20.2-31.768c0,0-17.957,9.722-29.135,25.5a7.727,7.727,0,0,0-7.141,1.336s-.522.854.427.332,3.322-2.207,6.027-1.281c0,0,.356.427-.356.379s-2.325-.285-5.528,1.471l4.057,3.346,2.893-3.8a2.161,2.161,0,0,0,.24-1.775s12.8-16.286,27.025-23.868c0,0,.476.076-.427.563s-17.336,13.839-21.872,20.411c0,0-1.1,1.628-7.587,8.781l1,.75s3.22-3.852,4.264-4.029c0,0,.738.127.219.76,0,0-.467-.355-1.76,1.014a24.1,24.1,0,0,0-2.129,2.584s.025.3.279.152,2.84-3.9,3.835-2.788-.445,2.413-.445,2.413Z" transform="translate(-253.777 -321.455)" fill="#fff"/>
        <path id="Path_25" data-name="Path 25" d="M254.845,349.606a40.72,40.72,0,0,1-3.174-3.237s3.426-4.557,6.695-6.6l2.954,1.446A18.846,18.846,0,0,0,254.845,349.606Z" transform="translate(-240.924 -330.719)" fill="#fff"/>
        <path id="Path_26" data-name="Path 26" d="M269.959,333.645s10.008-7.48,25.226.206c0,0,.427.552-.727.2s-9.606-6.22-22.155.972Z" transform="translate(-250.175 -325.97)" fill="#fff"/>
        <path id="Path_27" data-name="Path 27" d="M327.969,404.651l2.7,1.738s3.69-4.293,4.825-8.408l-1.348-1.632A18.561,18.561,0,0,1,327.969,404.651Z" transform="translate(-279.52 -359.342)" fill="#fff"/>
        <path id="Path_28" data-name="Path 28" d="M340.212,373.31l1.329,1.33s2.889-10.27-2.98-19.622c0,0-.653-.372-.146.585A21.527,21.527,0,0,1,340.212,373.31Z" transform="translate(-284.707 -338.397)" fill="#fff"/>
        <path id="Path_29" data-name="Path 29" d="M323.959,381.284s.614.865,1.389-.278a14.884,14.884,0,0,1,1.292-1.692s-1.227,2.519-.936,2.841,2.131,1.873,2.131,1.873l-2.228-1.1s-.42-.419-.807.259A13.736,13.736,0,0,1,323.346,385l.936-2.163s.516-.323-.452-.9a11.663,11.663,0,0,1-1.808-1.389Z" transform="translate(-276.512 -350.724)" fill="#fff"/>
        <path id="Path_30" data-name="Path 30" d="M278.166,354.97l1.375,1.091a.46.46,0,0,1,.081.634,7.85,7.85,0,0,0-.618,1.382,6.409,6.409,0,0,0,1.024-1.138c.163-.26.26-.649,1.008-.137a4.3,4.3,0,0,0,1.317.64,16.876,16.876,0,0,0-1.511-1.267s-.277-.163-.016-.585a4.8,4.8,0,0,0,.731-1.609,4.42,4.42,0,0,0-1.3,1.431s-.036.39-.491.065A5.176,5.176,0,0,0,278.166,354.97Z" transform="translate(-254.326 -337.908)" fill="#fff"/>
        <path id="Path_31" data-name="Path 31" d="M297.162,338.071l-1.663,2.073s-.151.67-1.187.108-1.9-.978-1.9-.978l1.922,1.778s.324.13.151.6-.756,2.073-.756,2.073l1.416-1.62s.1-.518,1.089-.043,1.9.885,1.9.885l-2.052-1.642s-.281-.259-.043-.928S297.162,338.071,297.162,338.071Z" transform="translate(-261.532 -329.86)" fill="#fff"/>
      </g>
    </g>
    <g id="back" transform="translate(42 44)">
      <circle id="bg-2" data-name="bg" cx="24" cy="24" r="24" fill="none"/>
      <g id="_24px-10" data-name="24px-10" transform="translate(17 12)">
        <path id="Path_104" data-name="Path 104" d="M11.67,3.87,9.9,2.1,0,12l9.9,9.9,1.77-1.77L3.54,12Z" fill="#fefeff"/>
        <path id="Path_105" data-name="Path 105" d="M0,0H24V24H0Z" fill="none"/>
      </g>
    </g>
    <g id="content" transform="translate(68 228)">
      <rect id="Rectangle_552" data-name="Rectangle 552" width="67" height="95" rx="20" fill="#e3ebee"/>
      <rect id="Rectangle_2230" data-name="Rectangle 2230" width="67" height="95" rx="20" transform="translate(75)" fill="#e3ebee"/>
      <rect id="Rectangle_2231" data-name="Rectangle 2231" width="67" height="95" rx="20" transform="translate(150)" fill="#e3ebee"/>
      <rect id="Rectangle_2232" data-name="Rectangle 2232" width="67" height="95" rx="20" transform="translate(225)" fill="#e3ebee"/>
      <text id="_1" data-name="1" transform="translate(22 64)" fill="#223f71" font-size="42" font-family="NotoSans-Bold, Noto Sans" font-weight="700" letter-spacing="0.012em"><tspan x="0" y="0">1</tspan></text>
      <text id="_1-2" data-name="1" transform="translate(97 64)" fill="#223f71" font-size="42" font-family="NotoSans-Bold, Noto Sans" font-weight="700" letter-spacing="0.012em"><tspan x="0" y="0">1</tspan></text>
      <text id="_1-3" data-name="1" transform="translate(172 64)" fill="#223f71" font-size="42" font-family="NotoSans-Bold, Noto Sans" font-weight="700" letter-spacing="0.012em"><tspan x="0" y="0">1</tspan></text>
      <text id="_1-4" data-name="1" transform="translate(247 64)" fill="#223f71" font-size="42" font-family="NotoSans-Bold, Noto Sans" font-weight="700" letter-spacing="0.012em"><tspan x="0" y="0">1</tspan></text>
    </g>
    <text id="Enter_Your_PIN" data-name="Enter Your PIN" transform="translate(42 206)" fill="#223f71" font-size="25" font-family="NotoSans-Bold, Noto Sans" font-weight="700" letter-spacing="0.012em"><tspan x="0" y="0">Enter Your PIN</tspan></text>
    <g id="Number" transform="translate(93 404)">
      <text id="_1-5" data-name="1" transform="translate(11 43)" fill="#352641" font-size="40" font-family="SegoeUI, Segoe UI" letter-spacing="-0.025em"><tspan x="-10.781" y="0">1</tspan></text>
      <text id="_4" data-name="4" transform="translate(11 133)" fill="#352641" font-size="40" font-family="SegoeUI, Segoe UI" letter-spacing="-0.025em"><tspan x="-10.781" y="0">4</tspan></text>
      <text id="_2" data-name="2" transform="translate(122 43)" fill="#352641" font-size="40" font-family="SegoeUI, Segoe UI" letter-spacing="-0.025em"><tspan x="-10.781" y="0">2</tspan></text>
      <text id="_5" data-name="5" transform="translate(122 133)" fill="#352641" font-size="40" font-family="SegoeUI, Segoe UI" letter-spacing="-0.025em"><tspan x="-10.781" y="0">5</tspan></text>
      <text id="_3" data-name="3" transform="translate(232 43)" fill="#352641" font-size="40" font-family="SegoeUI, Segoe UI" letter-spacing="-0.025em"><tspan x="-10.781" y="0">3</tspan></text>
      <text id="_6" data-name="6" transform="translate(232 133)" fill="#352641" font-size="40" font-family="SegoeUI, Segoe UI" letter-spacing="-0.025em"><tspan x="-10.781" y="0">6</tspan></text>
      <text id="_7" data-name="7" transform="translate(11 223)" fill="#352641" font-size="40" font-family="SegoeUI, Segoe UI" letter-spacing="-0.025em"><tspan x="-10.781" y="0">7</tspan></text>
      <text id="_8" data-name="8" transform="translate(122 223)" fill="#352641" font-size="40" font-family="SegoeUI, Segoe UI" letter-spacing="-0.025em"><tspan x="-10.781" y="0">8</tspan></text>
      <text id="_0" data-name="0" transform="translate(122 313)" fill="#352641" font-size="40" font-family="SegoeUI, Segoe UI" letter-spacing="-0.025em"><tspan x="-10.781" y="0">0</tspan></text>
      <text id="_9" data-name="9" transform="translate(232 223)" fill="#352641" font-size="40" font-family="SegoeUI, Segoe UI" letter-spacing="-0.025em"><tspan x="-10.781" y="0">9</tspan></text>
      <g id="delete" transform="translate(219 281.5)">
        <path id="Path_83" data-name="Path 83" d="M21,4H8L1,12l7,8H21a2,2,0,0,0,2-2V6A2,2,0,0,0,21,4Z" fill="none" stroke="#223f71" stroke-linecap="round" stroke-linejoin="round" stroke-width="2"/>
        <line id="Line_92" data-name="Line 92" x1="6" y2="6" transform="translate(12 9)" fill="none" stroke="#223f71" stroke-linecap="round" stroke-linejoin="round" stroke-width="2"/>
        <line id="Line_93" data-name="Line 93" x2="6" y2="6" transform="translate(12 9)" fill="none" stroke="#223f71" stroke-linecap="round" stroke-linejoin="round" stroke-width="2"/>
      </g>
    </g>
  </g>
</svg>
