<svg xmlns="http://www.w3.org/2000/svg" width="65.883" height="59.002" viewBox="0 0 65.883 59.002">
  <g data-name="Group 1163">
    <g data-name="Group 5" fill="#fff">
      <path data-name="Path 19" d="M10.035 52.615s-2.484 4.771-.283 6.042 6.268-1.384 6.268-1.384l5.618-3.868s13.254 6.65 25.785-2.964c0 0 13.985 8.78 18.156 3.937 0 0 3.367-4.814-12.31-20.49 0 0 11.341 11.845 9.174 16.347s-17.924-5.836-17.924-5.836-13.213-9.253-13.091-9.547-5.919 6.336-5.919 6.336l.875.667 2.209-1s.166-.459.75.334 1.793 1.334 1.793 3.752a12.85 12.85 0 0 1-.667 4.168s4.294-3.543 5.46-5.377c0 0 5.992 4.072 7.312 4.527 0 0-7.6 5-18.782-.387 0 0-3.864 4.683-6.323 6.264S7.9 61.69 10.035 52.615Z"/>
      <path data-name="Path 20" d="M22.199 41.767s-4.135 4.174-3.043 5.578c0 0 2.333-.351 5.009-4.252 0 0-3.527 6.007-7.311 6.671.001 0-.35-3.277 5.345-7.997Z"/>
      <path data-name="Path 21" d="M24.876 43.745s-5.066 7.006-8.905 7.243c0 0-1.544-2.652 5.225-9.578 0 0-9.46 7.4-9.223 14.17 0 0 6.254-1.028 12.903-11.835Z"/>
      <path data-name="Path 22" d="M11.316 51.937a23.181 23.181 0 0 1 6.164-9.576s-6.757-6.042-5.324-17.283c0 0 .147-.514.616.076s5.736 5.358 6.014 5.474.185.6 0 .765a21.276 21.276 0 0 0-3.128 4.679s4.865-3.266 8.317.348l-.326 2.36a1.1 1.1 0 0 0 .515 1.23 69.619 69.619 0 0 1 5.182-6.626s-21.81-17.207-22.5-20.832c0 0-4.548-5.894 0-7.09s16.024 5.28 16.024 5.28S4.917-.171.481 4.335c0 0-3.38 3.239 7.674 15.982 0 0-6.386 12.168 4.647 26.129.006-.001-.886 2.733-1.486 5.491Z"/>
      <path data-name="Path 23" d="M22.857 42.73s9.5-12.522 10.754-12.444c0 0 .7-.158-.4 1.264s-9.603 10.983-10.354 11.18Z"/>
      <path data-name="Path 24" d="m32.096 33.888 6.711 5.18a8.4 8.4 0 0 0 0-6.028s-.226-.5.713-1.272S54.146 17.34 59.72 0c0 0-17.957 9.722-29.135 25.5a7.727 7.727 0 0 0-7.141 1.336s-.522.854.427.332 3.322-2.207 6.027-1.281c0 0 .356.427-.356.379s-2.325-.285-5.528 1.471l4.057 3.346 2.893-3.8a2.161 2.161 0 0 0 .24-1.775S44.004 9.222 58.229 1.64c0 0 .476.076-.427.563S40.466 16.042 35.93 22.614c0 0-1.1 1.628-7.587 8.781l1 .75s3.22-3.852 4.264-4.029c0 0 .738.127.219.76 0 0-.467-.355-1.76 1.014a24.1 24.1 0 0 0-2.129 2.584s.025.3.279.152 2.84-3.9 3.835-2.788-.445 2.413-.445 2.413Z"/>
      <path data-name="Path 25" d="M13.921 18.887a40.72 40.72 0 0 1-3.174-3.237s3.426-4.557 6.695-6.6l2.954 1.446a18.846 18.846 0 0 0-6.475 8.391Z"/>
      <path data-name="Path 26" d="M19.784 7.675s10.008-7.48 25.226.206c0 0 .427.552-.727.2s-9.606-6.22-22.155.972Z"/>
      <path data-name="Path 27" d="m48.449 45.309 2.7 1.738s3.69-4.293 4.825-8.408l-1.348-1.632a18.561 18.561 0 0 1-6.177 8.302Z"/>
      <path data-name="Path 28" d="m55.505 34.913 1.329 1.33s2.889-10.27-2.98-19.622c0 0-.653-.372-.146.585a21.527 21.527 0 0 1 1.797 17.707Z"/>
      <path data-name="Path 29" d="M47.447 30.56s.614.865 1.389-.278a14.884 14.884 0 0 1 1.292-1.692s-1.227 2.519-.936 2.841 2.131 1.873 2.131 1.873l-2.228-1.1s-.42-.419-.807.259a13.736 13.736 0 0 1-1.454 1.813l.936-2.163s.516-.323-.452-.9a11.663 11.663 0 0 1-1.808-1.389Z"/>
      <path data-name="Path 30" d="m23.84 17.062 1.375 1.091a.46.46 0 0 1 .081.634 7.85 7.85 0 0 0-.618 1.382 6.409 6.409 0 0 0 1.024-1.138c.163-.26.26-.649 1.008-.137a4.3 4.3 0 0 0 1.317.64 16.876 16.876 0 0 0-1.511-1.267s-.277-.163-.016-.585a4.8 4.8 0 0 0 .731-1.609 4.42 4.42 0 0 0-1.3 1.431s-.036.39-.491.065a5.176 5.176 0 0 0-1.6-.507Z"/>
      <path data-name="Path 31" d="m35.63 8.211-1.663 2.073s-.151.67-1.187.108-1.9-.978-1.9-.978l1.922 1.778s.324.13.151.6-.756 2.073-.756 2.073l1.416-1.62s.1-.518 1.089-.043 1.9.885 1.9.885l-2.052-1.642s-.281-.259-.043-.928 1.123-2.306 1.123-2.306Z"/>
    </g>
  </g>
</svg>
